<?xml version="1.0" standalone="no"?>
<!DOCTYPE svg PUBLIC "-//W3C//DTD SVG 20010904//EN"
 "http://www.w3.org/TR/2001/REC-SVG-20010904/DTD/svg10.dtd">
<svg version="1.0" xmlns="http://www.w3.org/2000/svg"
 width="282.000000pt" height="282.000000pt" viewBox="0 0 282.000000 282.000000"
 preserveAspectRatio="xMidYMid meet">
<metadata>
Created by potrace 1.14, written by Peter Selinger 2001-2017
</metadata>
<g transform="translate(0.000000,282.000000) scale(0.100000,-0.100000)"
fill="#000000" stroke="none">
<path d="M1255 2813 c-253 -30 -556 -157 -739 -312 -62 -52 -202 -199 -231
-242 -16 -24 -38 -52 -47 -63 -29 -33 -146 -277 -173 -363 -47 -147 -63 -271
-60 -443 4 -192 13 -244 73 -435 101 -321 366 -631 677 -792 159 -82 301 -128
470 -150 67 -9 295 -10 370 -1 76 9 243 51 315 80 129 51 308 154 395 228 34
29 158 154 195 196 90 102 187 278 243 441 51 146 70 255 73 429 4 233 -35
415 -132 621 -110 235 -280 433 -499 580 -142 96 -366 186 -515 209 -25 3 -54
9 -65 11 -25 6 -309 11 -350 6z"/>
</g>
</svg>
